# xmcd
#
# Track frame offsets:
#	150
#	16575
#	35571
#	50075
#	65813
#	81280
#	95865
#	117036
#	135139
#	155007
#	170849
#	186644
#	201852
#	215509
#	230128
#
# Disc length: 3288 seconds
#
# Revision: 2
# Processed by: cddbd v1.5.2PL0 Copyright (c) Steve Scherf et al.
# Submitted via: EZCDAudioConverter 2.0.7.1
#
DISCID=e00cd60f
DTITLE=Various Artist - Super 10 CD Années 80 08 Italo-Dance
DYEAR=2013
DGENRE=Disco
TTITLE0=Righeira - Vamos A la playa
TTITLE1=Ryan Paris - Dolce Vita
TTITLE2=Moon Ray - Comanchero
TTITLE3=Koto - Visitors
TTITLE4=Ken Laszlo - Hey Hey Guy
TTITLE5=Piano Fantasia - Song For Denise
TTITLE6=Do Piano - Again
TTITLE7=Casanova - Tutti Quanti
TTITLE8=Piano Fantasia - Walkman
TTITLE9=Betty Miranda - Take Me To The Top
TTITLE10=Valérie Dore - The Night
TTITLE11=Righeira - No Tengo Dinero
TTITLE12=Ricchi and Poveri - Sarà Perché Ti Amo
TTITLE13=Fr. David - Pick Up The Phone
TTITLE14=P. Lion - Happy Children
EXTD=
EXTT0=
EXTT1=
EXTT2=
EXTT3=
EXTT4=
EXTT5=
EXTT6=
EXTT7=
EXTT8=
EXTT9=
EXTT10=
EXTT11=
EXTT12=
EXTT13=
EXTT14=
PLAYORDER=
